<svg xmlns="http://www.w3.org/2000/svg" xmlns:xlink="http://www.w3.org/1999/xlink" width="64" height="43" viewBox="0 0 64 43"><defs><style>.a,.c{fill:#23e5db;}.a{stroke:rgba(0,0,0,0);}.b{clip-path:url(#a);}</style><clipPath id="a"><rect class="a" width="64" height="43"/></clipPath></defs><g class="b"><path class="c" d="M48.944,43.559H40.252V6.926h8.692ZM37.119,25.243a15.1,15.1,0,1,1-15.1-15.1A15.1,15.1,0,0,1,37.119,25.243Zm-10.521,0a4.575,4.575,0,1,0-4.575,4.575A4.575,4.575,0,0,0,26.6,25.243Zm44.331-9.174H65.149l-3.386,3.386-3.386-3.386H52.6v5.87l3.34,3.34L52.6,28.62v5.79H58.45L61.759,31.1l3.308,3.308h5.861V28.625l-3.341-3.341,3.341-3.345Z" transform="translate(-6.928 -3.909)"/></g></svg>